# xmcd
#
# Track frame offsets:
#	150
#	18933
#	34057
#	49784
#	65221
#	78271
#	92289
#	104633
#	123904
#	137334
#	155876
#	174583
#	189188
#	207491
#	223149
#	240812
#	257116
#	270467
#	289343
#	305251
#
# Disc length: 4311 seconds
#
# Revision: 0
# Processed by: cddbd v1.5.2PL0 Copyright (c) Steve Scherf et al.
# Submitted via: dBpowerAMP V4.0
#
DISCID=1810d514
DTITLE=Juice Newton - Juice/Quiet Lies
DYEAR=2006
DGENRE=Country
TTITLE0=Angel Of The Morning
TTITLE1=Shot Full Of Love
TTITLE2=Ride 'Em Cowboy
TTITLE3=Queen Of Hearts
TTITLE4=River Of Love
TTITLE5=All I Have To Do Is Dream
TTITLE6=Headin' For A Heartache
TTITLE7=Country Comfort
TTITLE8=Texas Heartache
TTITLE9=The Sweetest Thing (I've Ever Known)
TTITLE10=Heart Of The Night
TTITLE11=Love's Been A Little Bit Hard On Me
TTITLE12=Break It To Me Gently
TTITLE13=Love Sail Away
TTITLE14=I'm Dancing As Fast As I Can
TTITLE15=I'm Gonna Be Strong
TTITLE16=Trail Of Tears
TTITLE17=Adios Mi Corazon
TTITLE18=Falling In Love
TTITLE19=Ever True
EXTD=Juice Newton - Juice (1981) and Juice Newton - Quiet Lies (1982) rereleased as an 2 on 1 CD in 2006 on EMI.
EXTT0=
EXTT1=
EXTT2=
EXTT3=
EXTT4=
EXTT5=
EXTT6=
EXTT7=
EXTT8=
EXTT9=
EXTT10=
EXTT11=
EXTT12=
EXTT13=
EXTT14=
EXTT15=
EXTT16=
EXTT17=
EXTT18=
EXTT19=
PLAYORDER=
